<?xml version="1.0" encoding="utf-8"?><svg xmlns="http://www.w3.org/2000/svg" xmlns:xlink="http://www.w3.org/1999/xlink"><symbol fill="none" viewBox="0 0 14 14" id="close-icon" xmlns="http://www.w3.org/2000/svg"><path d="M14 1.41L12.59 0 7 5.59 1.41 0 0 1.41 5.59 7 0 12.59 1.41 14 7 8.41 12.59 14 14 12.59 8.41 7 14 1.41z" fill="current"/></symbol><symbol fill="none" viewBox="0 0 32 32" id="compass-icon" xmlns="http://www.w3.org/2000/svg"><path d="M7.554 18.564l14.393-9.97a.592.592 0 01.905.703l-6.076 16.42c-.206.557-.963.606-1.162.076l-1.93-5.121a.568.568 0 00-.474-.368l-5.44-.595c-.563-.062-.704-.807-.216-1.145z" fill="currentColor" stroke="currentColor"/><rect x=".5" y=".5" width="31" height="31" rx="15.5" stroke="currentColor"/></symbol><symbol fill="none" viewBox="0 0 16 15" id="favourites-icon" xmlns="http://www.w3.org/2000/svg"><path d="M8 14.012l-1.088-.99C3.05 9.52.5 7.21.5 4.376A4.085 4.085 0 014.625.25C5.93.25 7.183.858 8 1.817A4.491 4.491 0 0111.375.25 4.085 4.085 0 0115.5 4.375c0 2.835-2.55 5.145-6.412 8.655L8 14.012z" fill="#A7A7A7"/></symbol><symbol style="margin:auto" viewBox="0 0 100 100" preserveAspectRatio="xMidYMid" display="block" id="loader" xmlns="http://www.w3.org/2000/svg"><path d="M10 50a40 40 0 0080 0 40 42 0 01-80 0" fill="#85a2b6"><animateTransform attributeName="transform" type="rotate" dur="1s" repeatCount="indefinite" keyTimes="0;1" values="0 50 51;360 50 51"/></path></symbol><symbol viewBox="0 0 0 0" id="sprite" xmlns="http://www.w3.org/2000/svg"/></svg>