<svg width="100" height="100" viewBox="0 0 100 100" fill="none" xmlns="http://www.w3.org/2000/svg">
<path d="M50 100C77.6142 100 100 77.6142 100 50C100 22.3858 77.6142 0 50 0C22.3858 0 0 22.3858 0 50C0 77.6142 22.3858 100 50 100Z" fill="#2C3E50"/>
<path fill-rule="evenodd" clip-rule="evenodd" d="M64.9059 29.6088L12.0179 82.4968C14.6317 85.5487 17.6019 88.2762 20.8649 90.6208L73.3919 38.0938C74.5639 36.9228 73.614 34.0728 71.271 31.7298C68.927 29.3878 66.0769 28.4378 64.9059 29.6088V29.6088Z" fill="#ECF0F1"/>
<path d="M88.5 23.002C89.267 16.101 93.1 12.267 100 11.501C93.1 10.734 89.266 6.901 88.5 0.001C87.733 6.901 83.9 10.735 77 11.501C83.899 12.267 87.733 16.101 88.5 23.002ZM31.5 0C31 4.5 28.5 7 23.999 7.501C28.499 8.001 31 10.501 31.5 15.001C32 10.501 34.5 8.001 39.001 7.501C34.5 7 32 4.5 31.5 0ZM91.5 46.001C91 50.501 88.5 53.001 83.999 53.502C88.499 54.002 91 56.502 91.5 61.002C92 56.502 94.5 54.002 99.001 53.502C94.5 53.001 92 50.5 91.5 46.001Z" fill="#F0C419"/>
<path d="M71.5 53C71.133 56.299 69.3 58.133 66 58.5C69.3 58.866 71.134 60.7 71.5 63.999C71.867 60.7 73.7 58.866 77 58.5C73.7 58.133 71.866 56.298 71.5 53ZM46.5 21.999C46.133 25.299 44.3 27.133 41 27.5C44.3 27.867 46.134 29.699 46.5 33C46.867 29.699 48.7 27.867 52 27.5C48.7 27.133 46.866 25.299 46.5 21.999ZM58.5 3C58.133 6.298 56.3 8.133 53 8.5C56.3 8.866 58.134 10.7 58.5 13.999C58.866 10.7 60.7 8.866 64 8.5C60.7 8.133 58.866 6.298 58.5 3Z" fill="white"/>
</svg>
